<svg class="marks" width="461" height="116" viewBox="0 0 461 116" version="1.1" xmlns="http://www.w3.org/2000/svg" xmlns:xlink="http://www.w3.org/1999/xlink"><g transform="translate(52,16)"><g class="mark-group role-frame root"><g transform="translate(0,0)"><path class="background" d="M0.5,0.5h300v60h-300Z" style="fill: none; stroke: #ddd;"></path><g><g class="mark-group role-axis"><g transform="translate(0.5,60.5)"><path class="background" d="M0,0h0v0h0Z" style="pointer-events: none; fill: none;"></path><g><g class="mark-rule role-axis-grid" style="pointer-events: none;"><line transform="translate(0,-60)" x2="0" y2="60" style="fill: none; stroke: #ddd; stroke-width: 1; opacity: 1;"></line><line transform="translate(38,-60)" x2="0" y2="60" style="fill: none; stroke: #ddd; stroke-width: 1; opacity: 1;"></line><line transform="translate(75,-60)" x2="0" y2="60" style="fill: none; stroke: #ddd; stroke-width: 1; opacity: 1;"></line><line transform="translate(113,-60)" x2="0" y2="60" style="fill: none; stroke: #ddd; stroke-width: 1; opacity: 1;"></line><line transform="translate(150,-60)" x2="0" y2="60" style="fill: none; stroke: #ddd; stroke-width: 1; opacity: 1;"></line><line transform="translate(188,-60)" x2="0" y2="60" style="fill: none; stroke: #ddd; stroke-width: 1; opacity: 1;"></line><line transform="translate(225,-60)" x2="0" y2="60" style="fill: none; stroke: #ddd; stroke-width: 1; opacity: 1;"></line><line transform="translate(263,-60)" x2="0" y2="60" style="fill: none; stroke: #ddd; stroke-width: 1; opacity: 1;"></line><line transform="translate(300,-60)" x2="0" y2="60" style="fill: none; stroke: #ddd; stroke-width: 1; opacity: 1;"></line></g></g></g></g><g class="mark-group role-axis"><g transform="translate(0.5,0.5)"><path class="background" d="M0,0h0v0h0Z" style="pointer-events: none; fill: none;"></path><g><g class="mark-rule role-axis-grid" style="pointer-events: none;"><line transform="translate(0,60)" x2="300" y2="0" style="fill: none; stroke: #ddd; stroke-width: 1; opacity: 1;"></line><line transform="translate(0,39)" x2="300" y2="0" style="fill: none; stroke: #ddd; stroke-width: 1; opacity: 1;"></line><line transform="translate(0,17)" x2="300" y2="0" style="fill: none; stroke: #ddd; stroke-width: 1; opacity: 1;"></line></g></g></g></g><g class="mark-group role-scope pathgroup"><g transform="translate(0,0)"><path class="background" d="M0,0h300v60h-300Z" style="fill: none;"></path><g><g class="mark-line role-mark marks"><path d="M294.9265483021736,57.857142857142854L293.4063083678484,57.857142857142854L291.8860684335232,57.857142857142854L290.36582849919796,57.857142857142854L288.84558856487274,57.857142857142854L287.3253486305475,57.857142857142854L285.8051086962223,57.857142857142854L284.2848687618971,57.857142857142854L282.76462882757187,57.857142857142854L281.24438881874084,57.857142857142854L279.7241488844156,57.857142857142854L278.2039089500904,57.857142857142854L276.6836690157652,57.857142857142854L275.16342908144,57.857142857142854L273.64318914711475,57.857142857142854L272.12294921278954,57.857142857142854L270.6027092784643,57.857142857142854L269.0824693441391,57.857142857142854L267.5622294098139,57.857142857142854L266.04198947548866,57.857142857142854L264.52174954116344,57.857142857142854L263.0015096068382,57.857142857142854L261.481269672513,57.857142857142854L259.961029663682,57.857142857142854L258.44078972935677,57.857142857142854L256.92054979503155,57.857142857142854L255.40030986070633,57.857142857142854L253.8800699263811,57.857142857142854L252.3598299920559,57.857142857142854L250.83959005773067,57.857142857142854L249.31935012340546,57.857142857142854L247.79911018908024,57.857142857142854L246.27887025475502,57.857142857142854L244.7586303204298,57.857142857142854L243.23839038610458,57.857142857142854L241.71815045177937,57.857142857142854L240.19791051745415,57.857142857142854L238.67767050862312,57.857142857142854L237.15743057429788,57.857142857142854L235.6371906399727,57.857142857142854L234.11695070564747,57.857142857142854L232.59671077132222,57.857142857142854L231.07647083699703,57.857142857142854L229.5562309026718,57.857142857142854L228.03599096834657,57.857142857142854L226.51575103402138,57.857142857142854L224.99551109969616,57.857142857142854L223.4752711653709,57.857142857142854L221.95503123104572,57.857142857142854L220.4347912967205,57.857142857142854L218.91455136239526,57.857142857142854L217.39431135356426,57.857142857142854L215.87407141923904,57.857142857142854L214.35383148491383,55.714285714285715L212.8335915505886,55.714285714285715L211.3133516162634,55.714285714285715L209.79311168193817,55.714285714285715L208.27287174761295,55.714285714285715L206.75263181328773,55.714285714285715L205.23239187896252,55.714285714285715L203.7121519446373,53.57142857142857L202.19191201031208,53.57142857142857L200.67167207598686,53.57142857142857L199.15143214166164,53.57142857142857L197.63119220733643,53.57142857142857L196.1109521985054,53.57142857142857L194.59071226418018,53.57142857142857L193.070472329855,53.57142857142857L191.55023239552975,53.57142857142857L190.02999246120453,53.57142857142857L188.50975252687934,53.57142857142857L186.9895125925541,53.57142857142857L185.46927265822887,53.57142857142857L183.94903272390368,53.57142857142857L182.42879278957844,49.285714285714285L180.90855285525322,51.42857142857143L179.38831292092803,51.42857142857143L177.86807298660278,51.42857142857143L176.34783305227757,51.42857142857143L174.82759304344654,51.42857142857143L173.30735310912132,51.42857142857143L171.7871131747961,49.285714285714285L170.2668732404709,49.285714285714285L168.74663330614567,49.285714285714285L167.22639337182045,49.285714285714285L165.70615343749523,49.285714285714285L164.18591350317,47.142857142857146L162.6656735688448,47.142857142857146L161.14543363451958,47.142857142857146L159.62519370019436,45L158.10495376586914,42.85714285714286L156.58471383154392,42.85714285714286L155.0644738227129,40.71428571428571L153.54423388838768,40.71428571428571L152.02399395406246,38.57142857142857L150.50375401973724,38.57142857142857L148.98351408541203,38.57142857142857L147.4632741510868,38.57142857142857L145.9430342167616,38.57142857142857L144.42279428243637,38.57142857142857L142.90255434811115,38.57142857142857L141.38231441378593,38.57142857142857L139.86207447946072,38.57142857142857L138.3418345451355,38.57142857142857L136.82159461081028,38.57142857142857L135.30135467648506,38.57142857142857L133.78111466765404,38.57142857142857L132.26087473332882,38.57142857142857L130.7406347990036,38.57142857142857L129.22039486467838,40.71428571428571L127.70015493035316,38.57142857142857L126.17991499602795,38.57142857142857L124.65967506170273,38.57142857142857L123.13943512737751,38.57142857142857L121.61919519305229,38.57142857142857L120.09895525872707,38.57142857142857L118.57871532440186,38.57142857142857L117.05847539007664,38.57142857142857L115.53823545575142,38.57142857142857L114.0179955214262,38.57142857142857L112.49775551259518,38.57142857142857L110.97751557826996,38.57142857142857L109.45727564394474,38.57142857142857L107.93703570961952,38.57142857142857L106.4167957752943,36.42857142857143L104.89655584096909,38.57142857142857L103.37631590664387,32.14285714285714L101.85607597231865,32.14285714285714L100.33583603799343,30L98.81559610366821,27.85714285714286L97.295356169343,25.714285714285715L95.77511623501778,25.714285714285715L94.25487630069256,23.571428571428577L92.73463636636734,23.571428571428577L91.21439635753632,19.285714285714285L89.6941564232111,19.285714285714285L88.17391648888588,17.14285714285714L86.65367655456066,17.14285714285714L85.13343662023544,15L83.61319668591022,15L82.092956751585,12.857142857142861L80.57271681725979,10.714285714285715L79.05247688293457,8.571428571428577L77.53223694860935,8.571428571428577L76.01199701428413,8.571428571428577L74.49175707995892,8.571428571428577L72.9715171456337,10.714285714285715L71.45127721130848,8.571428571428577L69.93103720247746,8.571428571428577L68.41079726815224,12.857142857142861L66.89055733382702,8.571428571428577L65.3703173995018,12.857142857142861L63.85007746517658,6.4285714285714235L62.329837530851364,6.4285714285714235L60.809597596526146,6.4285714285714235L59.28935766220093,6.4285714285714235L57.76911772787571,6.4285714285714235L56.24887779355049,6.4285714285714235L54.72863785922527,6.4285714285714235L53.208397924900055,6.4285714285714235L51.68815799057484,6.4285714285714235L50.16791805624962,6.4285714285714235L48.647678047418594,6.4285714285714235L47.127438113093376,6.4285714285714235L45.60719817876816,6.4285714285714235L44.08695824444294,6.4285714285714235L42.56671831011772,0L41.0464783757925,6.4285714285714235L39.526238441467285,6.4285714285714235L38.00599850714207,6.4285714285714235L36.48575857281685,6.4285714285714235L34.96551863849163,6.4285714285714235L33.44527870416641,6.4285714285714235L31.925038769841194,6.4285714285714235L30.404798835515972,6.4285714285714235L28.884558901190758,6.4285714285714235L27.364318892359734,6.4285714285714235L25.844078958034515,4.285714285714285L24.323839023709297,6.4285714285714235L22.80359908938408,4.285714285714285L21.28335915505886,6.4285714285714235L19.763119220733643,6.4285714285714235L18.242879286408424,6.4285714285714235L16.722639352083206,6.4285714285714235L15.202399417757986,6.4285714285714235L13.68215948343277,6.4285714285714235L12.161919549107552,6.4285714285714235L10.641679614782332,2.142857142857139L9.121439680457115,6.4285714285714235L7.601199746131897,6.4285714285714235L6.080959737300873,6.4285714285714235L4.560719802975655,6.4285714285714235L3.0404798686504364,6.4285714285714235L1.5202399343252182,6.4285714285714235L0,2.142857142857139" style="fill: none; stroke: #ff7f0e; stroke-width: 2;"></path></g></g></g><g transform="translate(0,0)"><path class="background" d="M0,0h300v60h-300Z" style="fill: none;"></path><g><g class="mark-line role-mark marks"><path d="M183.94903272390368,57.857142857142854L182.42879278957844,57.857142857142854L180.90855285525322,57.857142857142854L179.38831292092803,55.714285714285715L177.86807291209698,55.714285714285715L176.34783297777176,55.714285714285715L174.82759304344654,55.714285714285715L173.30735310912132,47.142857142857146L171.7871131747961,49.285714285714285L170.2668732404709,49.285714285714285L168.74663330614567,49.285714285714285L167.22639337182045,49.285714285714285L165.70615343749523,49.285714285714285L164.18591350317,49.285714285714285L162.6656735688448,47.142857142857146L161.14543363451958,51.42857142857143L159.62519370019436,51.42857142857143L158.10495369136333,53.57142857142857L156.58471375703812,47.142857142857146L155.0644738227129,47.142857142857146L153.54423388838768,47.142857142857146L152.02399395406246,47.142857142857146L150.50375401973724,47.142857142857146L148.98351408541203,45L147.4632741510868,49.285714285714285L145.9430342167616,51.42857142857143L144.42279428243637,42.85714285714286L142.90255434811115,42.85714285714286L141.38231441378593,42.85714285714286L139.86207447946072,40.71428571428571L138.3418345451355,42.85714285714286L136.82159453630447,40.71428571428571L135.30135460197926,40.71428571428571L133.78111466765404,40.71428571428571L132.26087473332882,45L130.7406347990036,45L129.22039486467838,42.85714285714286L127.70015493035316,42.85714285714286L126.17991499602795,40.71428571428571L124.65967506170273,40.71428571428571L123.13943512737751,40.71428571428571L121.61919519305229,38.57142857142857L120.09895525872707,42.85714285714286L118.57871532440186,47.142857142857146L117.05847539007664,38.57142857142857L115.53823538124561,38.57142857142857L114.0179954469204,40.71428571428571L112.49775551259518,40.71428571428571L110.97751557826996,40.71428571428571L109.45727564394474,38.57142857142857L107.93703570961952,38.57142857142857L106.4167957752943,38.57142857142857L104.89655584096909,40.71428571428571L103.37631590664387,36.42857142857143L101.85607597231865,32.14285714285714L100.33583603799343,25.714285714285715L98.81559610366821,23.571428571428577L97.295356169343,25.714285714285715L95.77511623501778,25.714285714285715L94.25487622618675,21.428571428571423L92.73463629186153,19.285714285714285L91.21439635753632,19.285714285714285L89.6941564232111,17.14285714285714L88.17391648888588,8.571428571428577L86.65367655456066,8.571428571428577L85.13343662023544,8.571428571428577L83.61319668591022,10.714285714285715L82.092956751585,15L80.57271681725979,12.857142857142861L79.05247688293457,17.14285714285714L77.53223694860935,10.714285714285715L76.01199701428413,8.571428571428577L74.49175707995892,8.571428571428577L72.97151707112789,21.428571428571423L71.45127713680267,21.428571428571423L69.93103720247746,17.14285714285714L68.41079726815224,10.714285714285715L66.89055733382702,6.4285714285714235L65.3703173995018,6.4285714285714235L63.85007746517658,6.4285714285714235L62.329837530851364,8.571428571428577L60.809597596526146,6.4285714285714235L59.28935766220093,4.285714285714285L57.76911772787571,6.4285714285714235L56.24887779355049,6.4285714285714235L54.72863785922527,6.4285714285714235L53.208397924900055,6.4285714285714235L51.68815791606903,6.4285714285714235L50.16791798174381,6.4285714285714235L48.647678047418594,6.4285714285714235L47.127438113093376,6.4285714285714235L45.60719817876816,6.4285714285714235L44.08695824444294,6.4285714285714235L42.56671831011772,4.285714285714285L41.0464783757925,6.4285714285714235L39.526238441467285,6.4285714285714235L38.00599850714207,6.4285714285714235L36.48575857281685,6.4285714285714235L34.96551863849163,6.4285714285714235L33.44527870416641,6.4285714285714235L31.925038769841194,6.4285714285714235L30.40479876101017,6.4285714285714235L28.884558826684952,6.4285714285714235L27.364318892359734,6.4285714285714235L25.844078958034515,6.4285714285714235L24.323839023709297,6.4285714285714235L22.80359908938408,6.4285714285714235L21.28335915505886,6.4285714285714235L19.763119220733643,6.4285714285714235L18.242879286408424,4.285714285714285L16.722639352083206,6.4285714285714235L15.202399417757986,6.4285714285714235L13.68215948343277,2.142857142857139L12.161919549107552,6.4285714285714235L10.641679614782332,6.4285714285714235L9.12143960595131,6.4285714285714235L7.601199671626091,6.4285714285714235L6.080959737300873,6.4285714285714235L4.560719802975655,6.4285714285714235L3.0404798686504364,6.4285714285714235L1.5202399343252182,6.4285714285714235L0,4.285714285714285" style="fill: none; stroke: #2ca02c; stroke-width: 2;"></path></g></g></g></g><g class="mark-group role-legend"><g transform="translate(318,0)"><path class="background" d="M0,0h86v45h-86Z" style="pointer-events: none; fill: none;"></path><g><g class="mark-group role-legend-entry"><g transform="translate(0,16)"><path class="background" d="M0,0h0v0h0Z" style="pointer-events: none; fill: none;"></path><g><g class="mark-group role-scope"><g transform="translate(0,0)"><path class="background" d="M0,0h85.93333435058594v12.5h-85.93333435058594Z" style="pointer-events: none; fill: none; opacity: 1;"></path><g><g class="mark-symbol role-legend-symbol" style="pointer-events: none;"><path transform="translate(6,6)" d="M5,0A5,5,0,1,1,-5,0A5,5,0,1,1,5,0" style="fill: none; stroke: #ff7f0e; stroke-width: 1.5; opacity: 1;"></path></g><g class="mark-text role-legend-label" style="pointer-events: none;"><text text-anchor="start" transform="translate(16,9)" style="font-family: sans-serif; font-size: 10px; fill: #000; opacity: 1;">hyperband</text></g></g></g><g transform="translate(0,16)"><path class="background" d="M0,0h85.93333435058594v12.5h-85.93333435058594Z" style="pointer-events: none; fill: none; opacity: 1;"></path><g><g class="mark-symbol role-legend-symbol" style="pointer-events: none;"><path transform="translate(6,6)" d="M5,0A5,5,0,1,1,-5,0A5,5,0,1,1,5,0" style="fill: none; stroke: #2ca02c; stroke-width: 1.5; opacity: 1;"></path></g><g class="mark-text role-legend-label" style="pointer-events: none;"><text text-anchor="start" transform="translate(16,9)" style="font-family: sans-serif; font-size: 10px; fill: #000; opacity: 1;">hyperband+sop</text></g></g></g></g></g></g></g><g class="mark-text role-legend-title" style="pointer-events: none;"><text text-anchor="start" transform="translate(0,9)" style="font-family: sans-serif; font-size: 11px; font-weight: bold; fill: #000; opacity: 1;">alg</text></g></g></g></g><g class="mark-group role-axis"><g transform="translate(0.5,60.5)"><path class="background" d="M0,0h0v0h0Z" style="pointer-events: none; fill: none;"></path><g><g class="mark-rule role-axis-tick" style="pointer-events: none;"><line transform="translate(0,0)" x2="0" y2="5" style="fill: none; stroke: #888; stroke-width: 1; opacity: 1;"></line><line transform="translate(38,0)" x2="0" y2="5" style="fill: none; stroke: #888; stroke-width: 1; opacity: 1;"></line><line transform="translate(75,0)" x2="0" y2="5" style="fill: none; stroke: #888; stroke-width: 1; opacity: 1;"></line><line transform="translate(113,0)" x2="0" y2="5" style="fill: none; stroke: #888; stroke-width: 1; opacity: 1;"></line><line transform="translate(150,0)" x2="0" y2="5" style="fill: none; stroke: #888; stroke-width: 1; opacity: 1;"></line><line transform="translate(188,0)" x2="0" y2="5" style="fill: none; stroke: #888; stroke-width: 1; opacity: 1;"></line><line transform="translate(225,0)" x2="0" y2="5" style="fill: none; stroke: #888; stroke-width: 1; opacity: 1;"></line><line transform="translate(263,0)" x2="0" y2="5" style="fill: none; stroke: #888; stroke-width: 1; opacity: 1;"></line><line transform="translate(300,0)" x2="0" y2="5" style="fill: none; stroke: #888; stroke-width: 1; opacity: 1;"></line></g><g class="mark-text role-axis-label" style="pointer-events: none;"><text text-anchor="start" transform="translate(0,15)" style="font-family: sans-serif; font-size: 10px; fill: #000; opacity: 1;">0</text><text text-anchor="middle" transform="translate(37.5,15)" style="font-family: sans-serif; font-size: 10px; fill: #000; opacity: 1;">2</text><text text-anchor="middle" transform="translate(75,15)" style="font-family: sans-serif; font-size: 10px; fill: #000; opacity: 1;">4</text><text text-anchor="middle" transform="translate(112.5,15)" style="font-family: sans-serif; font-size: 10px; fill: #000; opacity: 1;">6</text><text text-anchor="middle" transform="translate(150,15)" style="font-family: sans-serif; font-size: 10px; fill: #000; opacity: 1;">8</text><text text-anchor="middle" transform="translate(187.5,15)" style="font-family: sans-serif; font-size: 10px; fill: #000; opacity: 1;">10</text><text text-anchor="middle" transform="translate(225,15)" style="font-family: sans-serif; font-size: 10px; fill: #000; opacity: 1;">12</text><text text-anchor="middle" transform="translate(262.5,15)" style="font-family: sans-serif; font-size: 10px; fill: #000; opacity: 1;">14</text><text text-anchor="end" transform="translate(300,15)" style="font-family: sans-serif; font-size: 10px; fill: #000; opacity: 1;">16</text></g><g class="mark-rule role-axis-domain" style="pointer-events: none;"><line transform="translate(0,0)" x2="300" y2="0" style="fill: none; stroke: #888; stroke-width: 1; opacity: 1;"></line></g><g class="mark-text role-axis-title" style="pointer-events: none;"><text text-anchor="middle" transform="translate(150,31)" style="font-family: sans-serif; font-size: 11px; font-weight: bold; fill: #000; opacity: 1;">Elapsed time (min)</text></g></g></g></g><g class="mark-group role-axis"><g transform="translate(0.5,0.5)"><path class="background" d="M0,0h0v0h0Z" style="pointer-events: none; fill: none;"></path><g><g class="mark-rule role-axis-tick" style="pointer-events: none;"><line transform="translate(0,60)" x2="-5" y2="0" style="fill: none; stroke: #888; stroke-width: 1; opacity: 1;"></line><line transform="translate(0,39)" x2="-5" y2="0" style="fill: none; stroke: #888; stroke-width: 1; opacity: 1;"></line><line transform="translate(0,17)" x2="-5" y2="0" style="fill: none; stroke: #888; stroke-width: 1; opacity: 1;"></line></g><g class="mark-text role-axis-label" style="pointer-events: none;"><text text-anchor="end" transform="translate(-7,63)" style="font-family: sans-serif; font-size: 10px; fill: #000; opacity: 1;">0</text><text text-anchor="end" transform="translate(-7,41.57142857142857)" style="font-family: sans-serif; font-size: 10px; fill: #000; opacity: 1;">10</text><text text-anchor="end" transform="translate(-7,20.14285714285714)" style="font-family: sans-serif; font-size: 10px; fill: #000; opacity: 1;">20</text></g><g class="mark-rule role-axis-domain" style="pointer-events: none;"><line transform="translate(0,60)" x2="0" y2="-60" style="fill: none; stroke: #888; stroke-width: 1; opacity: 1;"></line></g><g class="mark-text role-axis-title" style="pointer-events: none;"><text text-anchor="middle" transform="translate(-34,30) rotate(-90) translate(0,-2)" style="font-family: sans-serif; font-size: 11px; font-weight: bold; fill: #000; opacity: 1;">Active workers</text></g></g></g></g></g></g></g></g></svg>