<svg class="marks" width="661" height="147" viewBox="0 0 661 147" version="1.1" xmlns="http://www.w3.org/2000/svg" xmlns:xlink="http://www.w3.org/1999/xlink"><g transform="translate(52,7)"><g class="mark-group role-frame root"><g transform="translate(0,0)"><path class="background" d="M0.5,0.5h500v100h-500Z" style="fill: none; stroke: #ddd;"></path><g><g class="mark-group role-axis"><g transform="translate(0.5,100.5)"><path class="background" d="M0,0h0v0h0Z" style="pointer-events: none; fill: none;"></path><g><g class="mark-rule role-axis-grid" style="pointer-events: none;"><line transform="translate(0,-100)" x2="0" y2="100" style="fill: none; stroke: #ddd; stroke-width: 1; opacity: 1;"></line><line transform="translate(50,-100)" x2="0" y2="100" style="fill: none; stroke: #ddd; stroke-width: 1; opacity: 1;"></line><line transform="translate(100,-100)" x2="0" y2="100" style="fill: none; stroke: #ddd; stroke-width: 1; opacity: 1;"></line><line transform="translate(150,-100)" x2="0" y2="100" style="fill: none; stroke: #ddd; stroke-width: 1; opacity: 1;"></line><line transform="translate(200,-100)" x2="0" y2="100" style="fill: none; stroke: #ddd; stroke-width: 1; opacity: 1;"></line><line transform="translate(250,-100)" x2="0" y2="100" style="fill: none; stroke: #ddd; stroke-width: 1; opacity: 1;"></line><line transform="translate(300,-100)" x2="0" y2="100" style="fill: none; stroke: #ddd; stroke-width: 1; opacity: 1;"></line><line transform="translate(350,-100)" x2="0" y2="100" style="fill: none; stroke: #ddd; stroke-width: 1; opacity: 1;"></line><line transform="translate(400,-100)" x2="0" y2="100" style="fill: none; stroke: #ddd; stroke-width: 1; opacity: 1;"></line><line transform="translate(450,-100)" x2="0" y2="100" style="fill: none; stroke: #ddd; stroke-width: 1; opacity: 1;"></line><line transform="translate(500,-100)" x2="0" y2="100" style="fill: none; stroke: #ddd; stroke-width: 1; opacity: 1;"></line></g></g></g></g><g class="mark-group role-axis"><g transform="translate(0.5,0.5)"><path class="background" d="M0,0h0v0h0Z" style="pointer-events: none; fill: none;"></path><g><g class="mark-rule role-axis-grid" style="pointer-events: none;"><line transform="translate(0,100)" x2="500" y2="0" style="fill: none; stroke: #ddd; stroke-width: 1; opacity: 1;"></line><line transform="translate(0,64)" x2="500" y2="0" style="fill: none; stroke: #ddd; stroke-width: 1; opacity: 1;"></line><line transform="translate(0,29)" x2="500" y2="0" style="fill: none; stroke: #ddd; stroke-width: 1; opacity: 1;"></line></g></g></g></g><g class="mark-group role-scope pathgroup"><g transform="translate(0,0)"><path class="background" d="M0,0h500v100h-500Z" style="fill: none;"></path><g><g class="mark-line role-mark marks"><path d="M471.8824772834778,96.42857142857143L469.45009338855743,96.42857142857143L467.0177094936371,96.42857142857143L464.58532559871674,96.42857142857143L462.1529417037964,96.42857142857143L459.72055780887604,96.42857142857143L457.2881739139557,96.42857142857143L454.85579001903534,96.42857142857143L452.423406124115,96.42857142857143L449.99102210998535,96.42857142857143L447.558638215065,96.42857142857143L445.12625432014465,96.42857142857143L442.6938704252243,96.42857142857143L440.26148653030396,96.42857142857143L437.8291026353836,96.42857142857143L435.39671874046326,96.42857142857143L432.9643348455429,96.42857142857143L430.53195095062256,96.42857142857143L428.0995670557022,96.42857142857143L425.66718316078186,96.42857142857143L423.2347992658615,96.42857142857143L420.80241537094116,96.42857142857143L418.3700314760208,96.42857142857143L415.9376474618912,96.42857142857143L413.5052635669708,96.42857142857143L411.0728796720505,96.42857142857143L408.6404957771301,96.42857142857143L406.2081118822098,96.42857142857143L403.77572798728943,96.42857142857143L401.3433440923691,96.42857142857143L398.91096019744873,96.42857142857143L396.4785763025284,96.42857142857143L394.04619240760803,96.42857142857143L391.6138085126877,96.42857142857143L389.18142461776733,96.42857142857143L386.749040722847,96.42857142857143L384.31665682792664,96.42857142857143L381.884272813797,96.42857142857143L379.45188891887665,96.42857142857143L377.0195050239563,96.42857142857143L374.58712112903595,96.42857142857143L372.1547372341156,96.42857142857143L369.72235333919525,96.42857142857143L367.2899694442749,96.42857142857143L364.85758554935455,96.42857142857143L362.4252016544342,96.42857142857143L359.99281775951385,96.42857142857143L357.5604338645935,96.42857142857143L355.12804996967316,96.42857142857143L352.6956660747528,96.42857142857143L350.26328217983246,96.42857142857143L347.8308981657028,96.42857142857143L345.39851427078247,96.42857142857143L342.9661303758621,92.85714285714286L340.5337464809418,92.85714285714286L338.1013625860214,92.85714285714286L335.6689786911011,92.85714285714286L333.2365947961807,92.85714285714286L330.8042109012604,92.85714285714286L328.37182700634,92.85714285714286L325.9394431114197,89.28571428571429L323.50705921649933,89.28571428571429L321.074675321579,89.28571428571429L318.64229142665863,89.28571428571429L316.2099075317383,89.28571428571429L313.77752351760864,89.28571428571429L311.3451396226883,89.28571428571429L308.91275572776794,89.28571428571429L306.4803718328476,89.28571428571429L304.04798793792725,89.28571428571429L301.6156040430069,89.28571428571429L299.18322014808655,89.28571428571429L296.7508362531662,89.28571428571429L294.31845235824585,89.28571428571429L291.8860684633255,82.14285714285714L289.45368456840515,85.71428571428572L287.0213006734848,85.71428571428572L284.58891677856445,85.71428571428572L282.1565328836441,85.71428571428572L279.72414886951447,85.71428571428572L277.2917649745941,85.71428571428572L274.85938107967377,82.14285714285714L272.4269971847534,82.14285714285714L269.99461328983307,82.14285714285714L267.5622293949127,82.14285714285714L265.12984549999237,82.14285714285714L262.697461605072,78.57142857142857L260.2650777101517,78.57142857142857L257.8326938152313,78.57142857142857L255.40030992031097,75L252.96792602539065,71.42857142857143L250.5355421304703,71.42857142857143L248.10315811634064,67.85714285714286L245.6707742214203,67.85714285714286L243.23839032649994,64.28571428571428L240.8060064315796,64.28571428571428L238.37362253665924,64.28571428571428L235.9412386417389,64.28571428571428L233.50885474681854,64.28571428571428L231.0764708518982,64.28571428571428L228.64408695697784,64.28571428571428L226.2117030620575,64.28571428571428L223.77931916713715,64.28571428571428L221.3469352722168,64.28571428571428L218.91455137729645,64.28571428571428L216.4821674823761,64.28571428571428L214.04978346824646,64.28571428571428L211.6173995733261,64.28571428571428L209.18501567840576,64.28571428571428L206.7526317834854,67.85714285714286L204.32024788856506,64.28571428571428L201.88786399364471,64.28571428571428L199.45548009872437,64.28571428571428L197.02309620380402,64.28571428571428L194.59071230888367,64.28571428571428L192.15832841396332,64.28571428571428L189.72594451904297,64.28571428571428L187.29356062412262,64.28571428571428L184.86117672920227,64.28571428571428L182.42879283428192,64.28571428571428L179.99640882015228,64.28571428571428L177.56402492523193,64.28571428571428L175.13164103031158,64.28571428571428L172.69925713539124,64.28571428571428L170.2668732404709,60.714285714285715L167.83448934555054,64.28571428571428L165.4021054506302,53.57142857142857L162.96972155570984,53.57142857142857L160.5373376607895,50L158.10495376586914,46.42857142857143L155.6725698709488,42.85714285714286L153.24018597602844,42.85714285714286L150.8078020811081,39.28571428571429L148.37541818618774,39.28571428571429L145.9430341720581,32.14285714285714L143.51065027713776,32.14285714285714L141.0782663822174,28.57142857142857L138.64588248729706,28.57142857142857L136.2134985923767,25L133.78111469745636,25L131.348730802536,21.42857142857143L128.91634690761566,17.85714285714286L126.48396301269533,14.285714285714292L124.05157911777496,14.285714285714292L121.61919522285461,14.285714285714292L119.18681132793427,14.285714285714292L116.75442743301392,17.85714285714286L114.32204353809357,14.285714285714292L111.88965952396393,14.285714285714292L109.45727562904358,21.42857142857143L107.02489173412323,14.285714285714292L104.59250783920288,21.42857142857143L102.16012394428253,10.714285714285708L99.72774004936218,10.714285714285708L97.29535615444183,10.714285714285708L94.86297225952148,10.714285714285708L92.43058836460114,10.714285714285708L89.99820446968079,10.714285714285708L87.56582057476044,10.714285714285708L85.13343667984009,10.714285714285708L82.70105278491974,10.714285714285708L80.26866888999939,10.714285714285708L77.83628487586975,10.714285714285708L75.4039009809494,10.714285714285708L72.97151708602905,10.714285714285708L70.5391331911087,10.714285714285708L68.10674929618835,0L65.674365401268,10.714285714285708L63.24198150634766,10.714285714285708L60.80959761142731,10.714285714285708L58.37721371650696,10.714285714285708L55.94482982158661,10.714285714285708L53.51244592666626,10.714285714285708L51.08006203174591,10.714285714285708L48.64767813682556,10.714285714285708L46.21529424190521,10.714285714285708L43.782910227775574,10.714285714285708L41.350526332855225,7.142857142857139L38.918142437934875,10.714285714285708L36.485758543014526,7.142857142857139L34.05337464809418,10.714285714285708L31.62099075317383,10.714285714285708L29.18860685825348,10.714285714285708L26.75622296333313,10.714285714285708L24.32383906841278,10.714285714285708L21.89145517349243,10.714285714285708L19.459071278572083,10.714285714285708L17.026687383651733,3.5714285714285694L14.594303488731384,10.714285714285708L12.161919593811035,10.714285714285708L9.729535579681396,10.714285714285708L7.297151684761047,10.714285714285708L4.864767789840698,10.714285714285708L2.432383894920349,10.714285714285708L0,3.5714285714285694" style="fill: none; stroke: #4c78a8; stroke-width: 2;"></path></g></g></g><g transform="translate(0,0)"><path class="background" d="M0,0h500v100h-500Z" style="fill: none;"></path><g><g class="mark-line role-mark marks"><path d="M294.31845235824585,96.42857142857143L291.8860684633255,96.42857142857143L289.45368456840515,96.42857142857143L287.0213006734848,92.85714285714286L284.58891665935516,92.85714285714286L282.1565327644348,92.85714285714286L279.72414886951447,92.85714285714286L277.2917649745941,78.57142857142857L274.85938107967377,82.14285714285714L272.4269971847534,82.14285714285714L269.99461328983307,82.14285714285714L267.5622293949127,82.14285714285714L265.12984549999237,82.14285714285714L262.697461605072,82.14285714285714L260.2650777101517,78.57142857142857L257.8326938152313,85.71428571428572L255.40030992031097,85.71428571428572L252.96792590618134,89.28571428571429L250.535542011261,78.57142857142857L248.10315811634064,78.57142857142857L245.6707742214203,78.57142857142857L243.23839032649994,78.57142857142857L240.8060064315796,78.57142857142857L238.37362253665924,75L235.9412386417389,82.14285714285714L233.50885474681854,85.71428571428572L231.0764708518982,71.42857142857143L228.64408695697784,71.42857142857143L226.2117030620575,71.42857142857143L223.77931916713715,67.85714285714286L221.3469352722168,71.42857142857143L218.91455125808716,67.85714285714286L216.4821673631668,67.85714285714286L214.04978346824646,67.85714285714286L211.6173995733261,75L209.18501567840576,75L206.7526317834854,71.42857142857143L204.32024788856506,71.42857142857143L201.88786399364471,67.85714285714286L199.45548009872437,67.85714285714286L197.02309620380402,67.85714285714286L194.59071230888367,64.28571428571428L192.15832841396332,71.42857142857143L189.72594451904297,78.57142857142857L187.29356062412262,64.28571428571428L184.86117660999298,64.28571428571428L182.42879271507263,67.85714285714286L179.99640882015228,67.85714285714286L177.56402492523193,67.85714285714286L175.13164103031158,64.28571428571428L172.69925713539124,64.28571428571428L170.2668732404709,64.28571428571428L167.83448934555054,67.85714285714286L165.4021054506302,60.714285714285715L162.96972155570984,53.57142857142857L160.5373376607895,42.85714285714286L158.10495376586914,39.28571428571429L155.6725698709488,42.85714285714286L153.24018597602844,42.85714285714286L150.8078019618988,35.71428571428571L148.37541806697845,32.14285714285714L145.9430341720581,32.14285714285714L143.51065027713776,28.57142857142857L141.0782663822174,14.285714285714292L138.64588248729706,14.285714285714292L136.2134985923767,14.285714285714292L133.78111469745636,17.85714285714286L131.348730802536,25L128.91634690761566,21.42857142857143L126.48396301269533,28.57142857142857L124.05157911777496,17.85714285714286L121.61919522285461,14.285714285714292L119.18681132793427,14.285714285714292L116.75442731380463,35.71428571428571L114.32204341888428,35.71428571428571L111.88965952396393,28.57142857142857L109.45727562904358,17.85714285714286L107.02489173412323,10.714285714285708L104.59250783920288,10.714285714285708L102.16012394428253,10.714285714285708L99.72774004936218,14.285714285714292L97.29535615444183,10.714285714285708L94.86297225952148,7.142857142857139L92.43058836460114,10.714285714285708L89.99820446968079,10.714285714285708L87.56582057476044,10.714285714285708L85.13343667984009,10.714285714285708L82.70105266571045,10.714285714285708L80.2686687707901,10.714285714285708L77.83628487586975,10.714285714285708L75.4039009809494,10.714285714285708L72.97151708602905,10.714285714285708L70.5391331911087,10.714285714285708L68.10674929618835,7.142857142857139L65.674365401268,10.714285714285708L63.24198150634766,10.714285714285708L60.80959761142731,10.714285714285708L58.37721371650696,10.714285714285708L55.94482982158661,10.714285714285708L53.51244592666626,10.714285714285708L51.08006203174591,10.714285714285708L48.64767801761627,10.714285714285708L46.21529412269592,10.714285714285708L43.782910227775574,10.714285714285708L41.350526332855225,10.714285714285708L38.918142437934875,10.714285714285708L36.485758543014526,10.714285714285708L34.05337464809418,10.714285714285708L31.62099075317383,10.714285714285708L29.18860685825348,7.142857142857139L26.75622296333313,10.714285714285708L24.32383906841278,10.714285714285708L21.89145517349243,3.5714285714285694L19.459071278572083,10.714285714285708L17.026687383651733,10.714285714285708L14.594303369522095,10.714285714285708L12.161919474601746,10.714285714285708L9.729535579681396,10.714285714285708L7.297151684761047,10.714285714285708L4.864767789840698,10.714285714285708L2.432383894920349,10.714285714285708L0,7.142857142857139" style="fill: none; stroke: #f58518; stroke-width: 2;"></path></g></g></g></g><g class="mark-group role-legend"><g transform="translate(518,0)"><path class="background" d="M0,0h86v45h-86Z" style="pointer-events: none; fill: none;"></path><g><g class="mark-group role-legend-entry"><g transform="translate(0,16)"><path class="background" d="M0,0h0v0h0Z" style="pointer-events: none; fill: none;"></path><g><g class="mark-group role-scope"><g transform="translate(0,0)"><path class="background" d="M0,0h85.93333435058594v12.5h-85.93333435058594Z" style="pointer-events: none; fill: none; opacity: 1;"></path><g><g class="mark-symbol role-legend-symbol" style="pointer-events: none;"><path transform="translate(6,6)" d="M5,0A5,5,0,1,1,-5,0A5,5,0,1,1,5,0" style="fill: none; stroke: #4c78a8; stroke-width: 1.5; opacity: 1;"></path></g><g class="mark-text role-legend-label" style="pointer-events: none;"><text text-anchor="start" transform="translate(16,9)" style="font-family: sans-serif; font-size: 10px; fill: #000; opacity: 1;">hyperband</text></g></g></g><g transform="translate(0,16)"><path class="background" d="M0,0h85.93333435058594v12.5h-85.93333435058594Z" style="pointer-events: none; fill: none; opacity: 1;"></path><g><g class="mark-symbol role-legend-symbol" style="pointer-events: none;"><path transform="translate(6,6)" d="M5,0A5,5,0,1,1,-5,0A5,5,0,1,1,5,0" style="fill: none; stroke: #f58518; stroke-width: 1.5; opacity: 1;"></path></g><g class="mark-text role-legend-label" style="pointer-events: none;"><text text-anchor="start" transform="translate(16,9)" style="font-family: sans-serif; font-size: 10px; fill: #000; opacity: 1;">hyperband+sop</text></g></g></g></g></g></g></g><g class="mark-text role-legend-title" style="pointer-events: none;"><text text-anchor="start" transform="translate(0,9)" style="font-family: sans-serif; font-size: 11px; font-weight: bold; fill: #000; opacity: 1;">alg</text></g></g></g></g><g class="mark-group role-axis"><g transform="translate(0.5,100.5)"><path class="background" d="M0,0h0v0h0Z" style="pointer-events: none; fill: none;"></path><g><g class="mark-rule role-axis-tick" style="pointer-events: none;"><line transform="translate(0,0)" x2="0" y2="5" style="fill: none; stroke: #888; stroke-width: 1; opacity: 1;"></line><line transform="translate(50,0)" x2="0" y2="5" style="fill: none; stroke: #888; stroke-width: 1; opacity: 1;"></line><line transform="translate(100,0)" x2="0" y2="5" style="fill: none; stroke: #888; stroke-width: 1; opacity: 1;"></line><line transform="translate(150,0)" x2="0" y2="5" style="fill: none; stroke: #888; stroke-width: 1; opacity: 1;"></line><line transform="translate(200,0)" x2="0" y2="5" style="fill: none; stroke: #888; stroke-width: 1; opacity: 1;"></line><line transform="translate(250,0)" x2="0" y2="5" style="fill: none; stroke: #888; stroke-width: 1; opacity: 1;"></line><line transform="translate(300,0)" x2="0" y2="5" style="fill: none; stroke: #888; stroke-width: 1; opacity: 1;"></line><line transform="translate(350,0)" x2="0" y2="5" style="fill: none; stroke: #888; stroke-width: 1; opacity: 1;"></line><line transform="translate(400,0)" x2="0" y2="5" style="fill: none; stroke: #888; stroke-width: 1; opacity: 1;"></line><line transform="translate(450,0)" x2="0" y2="5" style="fill: none; stroke: #888; stroke-width: 1; opacity: 1;"></line><line transform="translate(500,0)" x2="0" y2="5" style="fill: none; stroke: #888; stroke-width: 1; opacity: 1;"></line></g><g class="mark-text role-axis-label" style="pointer-events: none;"><text text-anchor="start" transform="translate(0,15)" style="font-family: sans-serif; font-size: 10px; fill: #000; opacity: 1;">0</text><text text-anchor="middle" transform="translate(50,15)" style="font-family: sans-serif; font-size: 10px; fill: #000; opacity: 1;">100</text><text text-anchor="middle" transform="translate(100,15)" style="font-family: sans-serif; font-size: 10px; fill: #000; opacity: 1;">200</text><text text-anchor="middle" transform="translate(150,15)" style="font-family: sans-serif; font-size: 10px; fill: #000; opacity: 1;">300</text><text text-anchor="middle" transform="translate(200,15)" style="font-family: sans-serif; font-size: 10px; fill: #000; opacity: 1;">400</text><text text-anchor="middle" transform="translate(250,15)" style="font-family: sans-serif; font-size: 10px; fill: #000; opacity: 1;">500</text><text text-anchor="middle" transform="translate(300,15)" style="font-family: sans-serif; font-size: 10px; fill: #000; opacity: 1;">600</text><text text-anchor="middle" transform="translate(350,15)" style="font-family: sans-serif; font-size: 10px; fill: #000; opacity: 1;">700</text><text text-anchor="middle" transform="translate(400,15)" style="font-family: sans-serif; font-size: 10px; fill: #000; opacity: 1;">800</text><text text-anchor="middle" transform="translate(450,15)" style="font-family: sans-serif; font-size: 10px; fill: #000; opacity: 1;">900</text><text text-anchor="end" transform="translate(500,15)" style="font-family: sans-serif; font-size: 10px; fill: #000; opacity: 1;">1,000</text></g><g class="mark-rule role-axis-domain" style="pointer-events: none;"><line transform="translate(0,0)" x2="500" y2="0" style="fill: none; stroke: #888; stroke-width: 1; opacity: 1;"></line></g><g class="mark-text role-axis-title" style="pointer-events: none;"><text text-anchor="middle" transform="translate(250,31)" style="font-family: sans-serif; font-size: 11px; font-weight: bold; fill: #000; opacity: 1;">elapsed_time</text></g></g></g></g><g class="mark-group role-axis"><g transform="translate(0.5,0.5)"><path class="background" d="M0,0h0v0h0Z" style="pointer-events: none; fill: none;"></path><g><g class="mark-rule role-axis-tick" style="pointer-events: none;"><line transform="translate(0,100)" x2="-5" y2="0" style="fill: none; stroke: #888; stroke-width: 1; opacity: 1;"></line><line transform="translate(0,64)" x2="-5" y2="0" style="fill: none; stroke: #888; stroke-width: 1; opacity: 1;"></line><line transform="translate(0,29)" x2="-5" y2="0" style="fill: none; stroke: #888; stroke-width: 1; opacity: 1;"></line></g><g class="mark-text role-axis-label" style="pointer-events: none;"><text text-anchor="end" transform="translate(-7,103)" style="font-family: sans-serif; font-size: 10px; fill: #000; opacity: 1;">0</text><text text-anchor="end" transform="translate(-7,67.28571428571428)" style="font-family: sans-serif; font-size: 10px; fill: #000; opacity: 1;">10</text><text text-anchor="end" transform="translate(-7,31.57142857142857)" style="font-family: sans-serif; font-size: 10px; fill: #000; opacity: 1;">20</text></g><g class="mark-rule role-axis-domain" style="pointer-events: none;"><line transform="translate(0,100)" x2="0" y2="-100" style="fill: none; stroke: #888; stroke-width: 1; opacity: 1;"></line></g><g class="mark-text role-axis-title" style="pointer-events: none;"><text text-anchor="middle" transform="translate(-34,50) rotate(-90) translate(0,-2)" style="font-family: sans-serif; font-size: 11px; font-weight: bold; fill: #000; opacity: 1;">num_workers</text></g></g></g></g></g></g></g></g></svg>